<svg width="48" height="48" viewBox="0 0 48 48" fill="none" xmlns="http://www.w3.org/2000/svg">
<path d="M0 8C0 3.58172 3.58172 0 8 0H40C44.4183 0 48 3.58172 48 8V40C48 44.4183 44.4183 48 40 48H8C3.58172 48 0 44.4183 0 40V8Z" fill="url(#paint0_linear_8_923)"/>
<g filter="url(#filter0_d_8_923)">
<path d="M23.9918 34.5917C33.0664 34.5917 40.4228 29.149 40.4228 22.4352C40.4228 15.7213 33.0664 10.2787 23.9918 10.2787C14.9172 10.2787 7.56079 15.7213 7.56079 22.4352C7.56079 26.7528 10.6031 30.5446 15.1883 32.7014L15.2515 36.2176C15.2583 36.5967 15.2617 36.7862 15.3436 36.8874C15.412 36.9718 15.5132 37.0229 15.6216 37.0276C15.7517 37.0333 15.9061 36.9234 16.2149 36.7037L16.2151 36.7035L19.3776 34.4524C19.5435 34.3343 19.6593 34.2519 19.7337 34.1795C21.0918 34.4483 22.5192 34.5917 23.9918 34.5917Z" fill="white"/>
</g>
<path d="M22.8881 34.5917C31.9627 34.5917 39.3191 29.149 39.3191 22.4352C39.3191 15.7213 31.9627 10.2787 22.8881 10.2787C13.8135 10.2787 6.45703 15.7213 6.45703 22.4352C6.45703 26.7528 9.49936 30.5446 14.0845 32.7014L14.1477 36.2176C14.1545 36.5966 14.158 36.7862 14.2399 36.8874C14.3082 36.9718 14.4094 37.0229 14.5179 37.0276C14.648 37.0333 14.8024 36.9234 15.1113 36.7035L18.2739 34.4524C18.4398 34.3343 18.5556 34.2519 18.63 34.1795C19.988 34.4483 21.4154 34.5917 22.8881 34.5917Z" fill="white" fill-opacity="0.2"/>
<defs>
<filter id="filter0_d_8_923" x="6.56079" y="10.2787" width="36.8621" height="30.7491" filterUnits="userSpaceOnUse" color-interpolation-filters="sRGB">
<feFlood flood-opacity="0" result="BackgroundImageFix"/>
<feColorMatrix in="SourceAlpha" type="matrix" values="0 0 0 0 0 0 0 0 0 0 0 0 0 0 0 0 0 0 127 0" result="hardAlpha"/>
<feOffset dx="1" dy="2"/>
<feGaussianBlur stdDeviation="1"/>
<feComposite in2="hardAlpha" operator="out"/>
<feColorMatrix type="matrix" values="0 0 0 0 0 0 0 0 0 0 0 0 0 0 0 0 0 0 0.2 0"/>
<feBlend mode="normal" in2="BackgroundImageFix" result="effect1_dropShadow_8_923"/>
<feBlend mode="normal" in="SourceGraphic" in2="effect1_dropShadow_8_923" result="shape"/>
</filter>
<linearGradient id="paint0_linear_8_923" x1="1.53192" y1="1.21071" x2="49.5072" y2="50.6603" gradientUnits="userSpaceOnUse">
<stop stop-color="#EA98DA"/>
<stop offset="1" stop-color="#5B6CF9"/>
</linearGradient>
</defs>
</svg>
